<svg width="126" height="200" viewBox="0 0 126 200" fill="none" xmlns="http://www.w3.org/2000/svg">
<path fill-rule="evenodd" clip-rule="evenodd" d="M0.0495388 54.2677C0.0495388 52.6108 1.39268 51.2677 3.04953 51.2677H122.744C124.401 51.2677 125.744 52.6108 125.744 54.2677V86.4198C125.745 86.4407 125.745 86.4626 125.745 86.4853C125.745 86.5048 125.746 86.5251 125.746 86.5459C125.747 86.7217 125.748 86.9438 125.745 87.2092C125.74 87.7395 125.723 88.4456 125.679 89.3029C125.592 91.0124 125.396 93.3521 124.965 96.1176C124.112 101.595 122.289 109.063 118.33 116.658C115.352 122.37 111.321 127.845 106.015 132.535L124.56 180.343C124.661 180.568 124.757 180.796 124.847 181.029C127.522 187.919 124.602 195.913 118.325 198.885C112.047 201.857 104.79 198.682 102.114 191.793C102.094 191.74 102.074 191.687 102.054 191.634L101.799 191.754L83.4565 144.468C77.4174 146.113 70.5917 147.037 62.8969 147.037C46.2789 147.037 33.7145 142.726 24.3725 136.161V186.438L24.3725 186.446L24.3725 186.453V188.108H24.2764C23.5203 194.596 18.3956 199.614 12.1862 199.614C5.97687 199.614 0.852183 194.596 0.0961094 188.108H0V186.446V86.2008H0.0495388V54.2677ZM24.4189 77.5393V86.7348L24.4161 86.8395L24.4161 86.8806L24.4166 86.9407C24.4181 87.1041 24.4243 87.4154 24.4467 87.8531C24.4918 88.7335 24.6013 90.0937 24.862 91.7679C25.3918 95.1701 26.4953 99.5418 28.708 103.786C32.6417 111.331 41.1594 120.765 62.8969 120.765C84.6344 120.765 93.152 111.331 97.0857 103.786C99.2985 99.5418 100.402 95.1701 100.932 91.7679C101.193 90.0937 101.302 88.7335 101.347 87.8531C101.37 87.4154 101.376 87.1041 101.377 86.9407C101.378 86.8949 101.378 86.861 101.378 86.8394L101.375 86.7348V77.5393H24.4189Z" fill="#272727"/>
<path d="M40.3372 18.1989C40.3372 28.2498 32.7934 36.3977 23.4876 36.3977C14.1819 36.3977 6.63806 28.2498 6.63806 18.1989C6.63806 8.14791 14.1819 0 23.4876 0C32.7934 0 40.3372 8.14791 40.3372 18.1989Z" fill="#272727"/>
<path d="M119.989 18.1989C119.989 28.2498 112.445 36.3977 103.14 36.3977C93.8338 36.3977 86.29 28.2498 86.29 18.1989C86.29 8.14791 93.8338 0 103.14 0C112.445 0 119.989 8.14791 119.989 18.1989Z" fill="#272727"/>
</svg>
